<?xml version="1.0" standalone="no"?>
<!DOCTYPE svg PUBLIC "-//W3C//DTD SVG 20010904//EN"
 "http://www.w3.org/TR/2001/REC-SVG-20010904/DTD/svg10.dtd">
<svg version="1.0" xmlns="http://www.w3.org/2000/svg"
 width="202.000000pt" height="202.000000pt" viewBox="0 0 202.000000 202.000000"
 preserveAspectRatio="xMidYMid meet">
<metadata>
Created by potrace 1.11, written by Peter Selinger 2001-2013
</metadata>
<g transform="translate(0.000000,202.000000) scale(0.100000,-0.100000)"
fill="#000000" stroke="none">
<path d="M984 1776 c-39 -17 -60 -47 -140 -196 -11 -19 -21 -37 -24 -40 -3 -3
-12 -17 -20 -32 -8 -15 -19 -27 -25 -28 -9 -1 -51 22 -220 118 -42 24 -72 26
-100 8 -13 -8 -65 -88 -117 -177 -51 -90 -105 -183 -120 -208 -54 -92 -75
-141 -70 -167 5 -27 39 -56 117 -99 204 -115 212 -120 198 -137 -6 -7 -23 -35
-38 -63 -60 -107 -79 -141 -100 -175 -12 -19 -33 -55 -47 -80 -14 -25 -42 -73
-62 -107 -20 -34 -36 -66 -36 -72 0 -6 -4 -11 -10 -11 -5 0 -10 -4 -10 -9 0
-8 -23 -49 -83 -149 -15 -26 -34 -61 -42 -79 -8 -17 -19 -34 -25 -38 -5 -3
-10 -13 -10 -21 0 -12 67 -14 465 -14 l465 0 0 31 c0 19 4 28 11 24 6 -4 13 2
16 14 3 11 9 18 14 15 5 -3 9 4 9 16 0 12 4 19 8 16 5 -3 15 10 22 29 7 19 17
32 22 29 4 -3 5 1 2 9 -3 8 2 20 11 27 8 7 15 26 15 42 0 17 4 27 10 23 12 -7
34 42 31 67 -1 12 4 16 17 13 16 -3 19 1 14 17 -3 14 -1 19 6 14 7 -4 12 -1
12 8 0 36 40 27 142 -32 176 -102 196 -112 220 -112 29 0 68 26 68 46 0 8 3
14 8 14 4 0 18 21 31 48 14 26 32 58 42 72 9 14 27 45 41 70 14 25 53 93 87
152 67 116 76 143 61 182 -8 22 -58 58 -76 55 -4 0 -10 3 -13 8 -3 5 -43 31
-88 57 -46 26 -85 51 -87 55 -3 4 15 40 40 80 24 40 44 74 44 75 0 2 36 65 80
142 83 144 94 182 69 237 -12 26 -62 61 -73 50 -3 -3 -6 -1 -6 5 0 16 -43 15
-83 -2 -31 -13 -79 -56 -62 -56 4 0 1 -8 -7 -17 -8 -10 -42 -64 -74 -121 -77
-134 -78 -135 -88 -150 -6 -10 -13 -6 -27 17 -32 53 -91 75 -158 59 -8 -2 -18
10 -24 27 -19 56 -73 95 -126 90 -17 -1 -31 0 -31 3 0 3 21 41 46 85 25 43 48
91 50 105 3 14 7 28 9 31 8 14 -33 77 -64 98 -38 26 -72 28 -117 9z"/>
<path d="M1289 1660 c-1 -3 0 -15 1 -28 1 -19 -3 -23 -22 -22 -36 3 -41 1 -29
-14 6 -8 11 -18 10 -22 -3 -21 2 -26 16 -14 20 17 51 5 36 -14 -15 -18 11 -30
28 -13 6 6 11 7 11 3 0 -5 8 -2 17 5 11 10 14 10 9 2 -4 -7 -2 -13 3 -13 14 0
14 17 1 25 -16 10 0 27 21 22 10 -3 24 2 31 11 11 13 11 14 0 8 -10 -6 -13 -2
-10 15 3 22 0 24 -30 21 -30 -3 -33 -1 -27 16 5 18 2 20 -29 19 -20 -1 -36 -4
-37 -7z"/>
<path d="M1457 1598 c-3 -10 -1 -16 4 -12 13 8 11 -13 -3 -28 -7 -7 -14 -20
-16 -28 -2 -8 -9 -18 -15 -22 -7 -4 -7 -8 -2 -8 6 0 4 -4 -4 -9 -17 -11 -7
-45 12 -39 6 3 17 13 22 24 6 10 18 34 28 51 10 18 17 36 16 39 0 4 5 10 12
15 10 6 10 10 0 23 -16 20 -49 16 -54 -6z"/>
<path d="M1175 1520 c-14 -16 -15 -23 -6 -34 7 -8 20 -12 28 -9 11 4 14 2 9
-5 -4 -7 -1 -12 8 -12 9 0 16 -4 16 -10 0 -5 7 -6 17 -3 12 5 14 3 8 -7 -6
-10 -4 -12 9 -7 10 4 19 1 22 -8 3 -7 12 -11 20 -8 10 4 12 0 8 -11 -5 -12 0
-16 16 -16 13 0 30 -9 40 -20 17 -19 17 -19 30 5 11 20 11 27 0 40 -7 8 -15
13 -18 11 -2 -3 -11 1 -18 9 -8 8 -21 12 -29 9 -10 -4 -15 0 -15 11 0 14 -3
15 -15 5 -12 -10 -15 -10 -15 4 0 9 -4 16 -10 16 -5 0 -10 -4 -10 -10 0 -5 -5
-10 -10 -10 -6 0 -10 6 -9 13 4 31 -1 41 -13 29 -16 -16 -31 -15 -25 2 3 8 0
19 -7 25 -10 8 -18 6 -31 -9z"/>
</g>
</svg>
